<svg xmlns="http://www.w3.org/2000/svg" viewBox="0 0 32 32">
  <defs>
    <linearGradient id="bg" x1="0" y1="0" x2="1" y2="1">
      <stop offset="0%" stop-color="#1e3a5f"/>
      <stop offset="100%" stop-color="#162c48"/>
    </linearGradient>
  </defs>
  <rect width="32" height="32" rx="7" fill="url(#bg)"/>
  <!-- Stylized B with digital accent -->
  <path d="M10 7h6.5c2.5 0 4.5 1.5 4.5 4 0 1.5-.8 2.7-2 3.3 1.5.6 2.5 2 2.5 3.7 0 2.8-2.2 4.5-5 4.5H10V7z M13.5 13.5h2.8c1.2 0 2-.7 2-1.8s-.8-1.7-2-1.7h-2.8v3.5z M13.5 19.5h3.2c1.3 0 2.1-.8 2.1-2s-.8-2-2.1-2h-3.2v4z" fill="white"/>
  <!-- Digital accent nodes -->
  <circle cx="25" cy="8" r="1.5" fill="#5393d7"/>
  <circle cx="25" cy="13" r="1" fill="#5393d7" opacity="0.6"/>
</svg>
